<svg width="150" height="50" xmlns="http://www.w3.org/2000/svg">

 <g>
  <title>background</title>
  <rect fill="none" id="canvas_background" height="52" width="152" y="-1" x="-1"/>
 </g>
 <g>
  <title>Layer 1</title>
  <path id="svg_1" fill="#F0908B" d="m57,28.6c0,-2.7 -1.7,-5 -4,-6c0.9,-0.9 1.5,-2.2 1.5,-3.6c0,-2.8 -2.3,-5.1 -5.1,-5.1c-0.2,0 -0.4,0 -0.5,0c0.3,-0.7 0.5,-1.5 0.5,-2.3c0,-2.8 -2.3,-5.1 -5.1,-5.1c-0.9,0 -1.7,0.2 -2.4,0.6c-0.7,-2 -2.6,-3.7 -4.8,-3.7c-2.8,0 -5,2.6 -5.1,4.6l0,0l0,35l0.1,0c0,0 0,0 0,0c0,3.6 2.9,6.4 6.5,6.4c3.2,0 5.8,-2.3 6.4,-5.3c0.6,0.2 1.3,0.3 2,0.3c3.6,0 6.5,-2.9 6.5,-6.5c0,-1.1 -0.3,-2.2 -0.8,-3.2c2.4,-0.8 4.3,-3.2 4.3,-6.1z"/>
  <path id="svg_2" fill="#F0908B" d="m5,28.6c0,-2.7 1.7,-5 4,-6c-0.9,-0.9 -1.5,-2.2 -1.5,-3.6c0,-2.8 2.3,-5.1 5.1,-5.1c0.2,0 0.4,0 0.5,0c-0.3,-0.7 -0.5,-1.5 -0.5,-2.3c0,-2.8 2.3,-5.1 5.1,-5.1c0.9,0 1.7,0.2 2.4,0.6c0.7,-2 2.6,-3.7 4.8,-3.7c2.8,0 5,2.6 5.1,4.6l0,0l0,35l-0.1,0c0,0 0,0 0,0c0,3.6 -2.9,6.4 -6.5,6.4c-3.2,0 -5.8,-2.3 -6.4,-5.3c-0.6,0.2 -1.3,0.3 -2,0.3c-3.6,0 -6.5,-2.9 -6.5,-6.5c0,-1.1 0.3,-2.2 0.8,-3.2c-2.4,-0.8 -4.3,-3.2 -4.3,-6.1z"/>
  <path id="svg_3" stroke-width="2" stroke-miterlimit="10" stroke-linejoin="round" stroke-linecap="round" stroke="#2C3E50" fill="none" d="m57,28.6c0,-2.7 -1.7,-5 -4,-6c0.9,-0.9 1.5,-2.2 1.5,-3.6c0,-2.8 -2.3,-5.1 -5.1,-5.1c-0.2,0 -0.4,0 -0.5,0c0.3,-0.7 0.5,-1.5 0.5,-2.3c0,-2.8 -2.3,-5.1 -5.1,-5.1c-0.9,0 -1.7,0.2 -2.4,0.6c-0.7,-2 -2.6,-3.7 -4.8,-3.7c-2.8,0 -5,2.6 -5.1,4.6l0,0l0,35l0.1,0c0,0 0,0 0,0c0,3.6 2.9,6.4 6.5,6.4c3.2,0 5.8,-2.3 6.4,-5.3c0.6,0.2 1.3,0.3 2,0.3c3.6,0 6.5,-2.9 6.5,-6.5c0,-1.1 -0.3,-2.2 -0.8,-3.2c2.4,-0.8 4.3,-3.2 4.3,-6.1z"/>
  <path id="svg_4" stroke-width="2" stroke-miterlimit="10" stroke-linejoin="round" stroke-linecap="round" stroke="#2C3E50" fill="none" d="m5,28.6c0,-2.7 1.7,-5 4,-6c-0.9,-0.9 -1.5,-2.2 -1.5,-3.6c0,-2.8 2.3,-5.1 5.1,-5.1c0.2,0 0.4,0 0.5,0c-0.3,-0.7 -0.5,-1.5 -0.5,-2.3c0,-2.8 2.3,-5.1 5.1,-5.1c0.9,0 1.7,0.2 2.4,0.6c0.7,-2 2.6,-3.7 4.8,-3.7c2.8,0 5,2.6 5.1,4.6l0,0l0,35l-0.1,0c0,0 0,0 0,0c0,3.6 -2.9,6.4 -6.5,6.4c-3.2,0 -5.8,-2.3 -6.4,-5.3c-0.6,0.2 -1.3,0.3 -2,0.3c-3.6,0 -6.5,-2.9 -6.5,-6.5c0,-1.1 0.3,-2.2 0.8,-3.2c-2.4,-0.8 -4.3,-3.2 -4.3,-6.1z"/>
  <path id="svg_5" stroke-width="2" stroke-miterlimit="10" stroke-linejoin="round" stroke-linecap="round" stroke="#2C3E50" fill="none" d="m15.5,30.2c0,0 4.6,-0.7 6.6,3.8c2.2,5 -0.7,8.7 -5,10.1"/>
  <path id="svg_6" stroke-width="2" stroke-miterlimit="10" stroke-linejoin="round" stroke-linecap="round" stroke="#2C3E50" fill="none" d="m25.6,15.6c0,0 -2.5,4 -7,3s-5.4,-4.7 -5.4,-4.7"/>
  <path id="svg_7" stroke-width="2" stroke-miterlimit="10" stroke-linejoin="round" stroke-linecap="round" stroke="#2C3E50" fill="none" d="m25.6,24.6c-0.1,-0.1 -1.3,-4.3 -6.5,-5.8"/>
  <path id="svg_8" stroke-width="2" stroke-miterlimit="10" stroke-linejoin="round" stroke-linecap="round" stroke="#2C3E50" fill="none" d="m41.4,25.2c0,0 -1.2,4.4 2.6,7.8c1.8,1.6 5.4,2.1 8.5,1.7"/>
  <path id="svg_9" stroke-width="2" stroke-miterlimit="10" stroke-linejoin="round" stroke-linecap="round" stroke="#2C3E50" fill="none" d="m40,17c0,0 2.7,1.7 5,1s3.9,-4.1 3.9,-4.1"/>
  <path id="svg_10" stroke-width="2" stroke-miterlimit="10" stroke-linejoin="round" stroke-linecap="round" stroke="#2C3E50" fill="none" d="m38,39c0,0 1.3,-5.1 7.3,-5.1"/>
  <text font-weight="bold" stroke="#000000" transform="matrix(0.8882793188095093,0,0,0.8882793188095093,0.2793017029762268,3.7985031604766846) " xml:space="preserve" text-anchor="start" font-family="'League Gothic', sans-serif" font-size="39" id="svg_11" y="38.276249" x="63.043233" fill-opacity="null" stroke-width="2" fill="#ffffff">BDTF</text>
 </g>
</svg>