<svg width="900" height="350" xmlns="http://www.w3.org/2000/svg" stroke="null" style="vector-effect: non-scaling-stroke;">
 <g stroke="null">
  <title stroke="null">background</title>
  <rect stroke="null" x="-1" y="-1" width="902" height="352" id="canvas_background" fill="#648aa4"/>
 </g>

 <g stroke="null">
  <title stroke="null">Layer 1</title>
  <text stroke="#000000" fill="#ffffff" fill-opacity="null" x="481.794848" y="224.028632" id="svg_11" font-size="43" font-family="'League Gothic', sans-serif" text-anchor="start" xml:space="preserve" transform="matrix(0.8882793188095093,0,0,0.8882793188095093,0.2793017029762268,3.7985031604766846) " font-weight="bold">BrainDiseaseTermFinder</text>
  <g stroke="null" id="svg_12">
   <path stroke="null" d="m349.000004,196.684609c0,-17.601923 -11.082692,-32.596154 -26.076923,-39.115385c5.867308,-5.867308 9.778846,-14.342308 9.778846,-23.469231c0,-18.253846 -14.994231,-33.248077 -33.248077,-33.248077c-1.303846,0 -2.607692,0 -3.259615,0c1.955769,-4.563462 3.259615,-9.778846 3.259615,-14.994231c0,-18.253846 -14.994231,-33.248077 -33.248077,-33.248077c-5.867308,0 -11.082692,1.303846 -15.646154,3.911539c-4.563462,-13.038462 -16.95,-24.121154 -31.292308,-24.121154c-18.253846,0 -32.596154,16.95 -33.248077,29.988462l0,0l0,228.173079l0.651923,0c0,0 0,0 0,0c0,23.469231 18.905769,41.723077 42.375,41.723077c20.861539,0 37.811539,-14.994231 41.723077,-34.551923c3.911539,1.303846 8.475,1.955769 13.038462,1.955769c23.469231,0 42.375,-18.905769 42.375,-42.375c0,-7.171154 -1.955769,-14.342308 -5.215385,-20.861539c15.646154,-5.215385 28.032693,-20.861539 28.032693,-39.767308z" fill="#F0908B" id="svg_1"/>
   <path stroke="null" d="m10,196.684609c0,-17.601923 11.082692,-32.596154 26.076923,-39.115385c-5.867308,-5.867308 -9.778846,-14.342308 -9.778846,-23.469231c0,-18.253846 14.994231,-33.248077 33.248077,-33.248077c1.303846,0 2.607692,0 3.259615,0c-1.955769,-4.563462 -3.259615,-9.778846 -3.259615,-14.994231c0,-18.253846 14.994231,-33.248077 33.248077,-33.248077c5.867308,0 11.082692,1.303846 15.646154,3.911539c4.563462,-13.038462 16.95,-24.121154 31.292308,-24.121154c18.253846,0 32.596154,16.95 33.248077,29.988462l0,0l0,228.173079l-0.651923,0c0,0 0,0 0,0c0,23.469231 -18.905769,41.723077 -42.375,41.723077c-20.861539,0 -37.811539,-14.994231 -41.723077,-34.551923c-3.911539,1.303846 -8.475,1.955769 -13.038462,1.955769c-23.469231,0 -42.375,-18.905769 -42.375,-42.375c0,-7.171154 1.955769,-14.342308 5.215385,-20.861539c-15.646154,-5.215385 -28.032693,-20.861539 -28.032693,-39.767308z" fill="#F0908B" id="svg_2"/>
   <path stroke="#2C3E50" d="m349.000004,196.684609c0,-17.601923 -11.082692,-32.596154 -26.076923,-39.115385c5.867308,-5.867308 9.778846,-14.342308 9.778846,-23.469231c0,-18.253846 -14.994231,-33.248077 -33.248077,-33.248077c-1.303846,0 -2.607692,0 -3.259615,0c1.955769,-4.563462 3.259615,-9.778846 3.259615,-14.994231c0,-18.253846 -14.994231,-33.248077 -33.248077,-33.248077c-5.867308,0 -11.082692,1.303846 -15.646154,3.911539c-4.563462,-13.038462 -16.95,-24.121154 -31.292308,-24.121154c-18.253846,0 -32.596154,16.95 -33.248077,29.988462l0,0l0,228.173079l0.651923,0c0,0 0,0 0,0c0,23.469231 18.905769,41.723077 42.375,41.723077c20.861539,0 37.811539,-14.994231 41.723077,-34.551923c3.911539,1.303846 8.475,1.955769 13.038462,1.955769c23.469231,0 42.375,-18.905769 42.375,-42.375c0,-7.171154 -1.955769,-14.342308 -5.215385,-20.861539c15.646154,-5.215385 28.032693,-20.861539 28.032693,-39.767308z" fill="none" stroke-linecap="round" stroke-linejoin="round" stroke-miterlimit="10" stroke-width="2" id="svg_3"/>
   <path stroke="#2C3E50" d="m10,196.684609c0,-17.601923 11.082692,-32.596154 26.076923,-39.115385c-5.867308,-5.867308 -9.778846,-14.342308 -9.778846,-23.469231c0,-18.253846 14.994231,-33.248077 33.248077,-33.248077c1.303846,0 2.607692,0 3.259615,0c-1.955769,-4.563462 -3.259615,-9.778846 -3.259615,-14.994231c0,-18.253846 14.994231,-33.248077 33.248077,-33.248077c5.867308,0 11.082692,1.303846 15.646154,3.911539c4.563462,-13.038462 16.95,-24.121154 31.292308,-24.121154c18.253846,0 32.596154,16.95 33.248077,29.988462l0,0l0,228.173079l-0.651923,0c0,0 0,0 0,0c0,23.469231 -18.905769,41.723077 -42.375,41.723077c-20.861539,0 -37.811539,-14.994231 -41.723077,-34.551923c-3.911539,1.303846 -8.475,1.955769 -13.038462,1.955769c-23.469231,0 -42.375,-18.905769 -42.375,-42.375c0,-7.171154 1.955769,-14.342308 5.215385,-20.861539c-15.646154,-5.215385 -28.032693,-20.861539 -28.032693,-39.767308z" fill="none" stroke-linecap="round" stroke-linejoin="round" stroke-miterlimit="10" stroke-width="2" id="svg_4"/>
   <path stroke="#2C3E50" d="m78.451924,207.115378c0,0 29.988462,-4.563462 43.026924,24.773077c14.342308,32.596154 -4.563462,56.717308 -32.596154,65.844232" fill="none" stroke-linecap="round" stroke-linejoin="round" stroke-miterlimit="10" stroke-width="2" id="svg_5"/>
   <path stroke="#2C3E50" d="m144.296155,111.934608c0,0 -16.298077,26.076923 -45.634616,19.557693s-35.203847,-30.640385 -35.203847,-30.640385" fill="none" stroke-linecap="round" stroke-linejoin="round" stroke-miterlimit="10" stroke-width="2" id="svg_6"/>
   <path stroke="#2C3E50" d="m144.296155,170.607685c-0.651923,-0.651923 -8.475,-28.032693 -42.375,-37.811539" fill="none" stroke-linecap="round" stroke-linejoin="round" stroke-miterlimit="10" stroke-width="2" id="svg_7"/>
   <path stroke="#2C3E50" d="m247.300003,174.519224c0,0 -7.823077,28.684616 16.95,50.850001c11.734616,10.430769 35.203847,13.690385 55.413462,11.082692" fill="none" stroke-linecap="round" stroke-linejoin="round" stroke-miterlimit="10" stroke-width="2" id="svg_8"/>
   <path stroke="#2C3E50" d="m238.173079,121.061531c0,0 17.601923,11.082692 32.596154,6.519231s25.425,-26.728846 25.425,-26.728846" fill="none" stroke-linecap="round" stroke-linejoin="round" stroke-miterlimit="10" stroke-width="2" id="svg_9"/>
   <path stroke="#2C3E50" d="m225.134618,264.48461c0,0 8.475,-33.248077 47.590385,-33.248077" fill="none" stroke-linecap="round" stroke-linejoin="round" stroke-miterlimit="10" stroke-width="2" id="svg_10"/>
  </g>
 </g>
</svg>